{
    "asset" : {
        "generator" : "Khronos glTF Blender I/O v3.3.27",
        "version" : "2.0"
    },
    "extensionsUsed" : [
        "KHR_materials_specular",
        "KHR_materials_ior"
    ],
    "scene" : 0,
    "scenes" : [
        {
            "name" : "Scene",
            "nodes" : [
                0,
                1
            ]
        }
    ],
    "nodes" : [
        {
            "mesh" : 0,
            "name" : "TQ_ARD-node.001"
        },
        {
            "mesh" : 1,
            "name" : "TQ_ARD-node"
        }
    ],
    "materials" : [
        {
            "doubleSided" : true,
            "extensions" : {
                "KHR_materials_specular" : {
                    "specularColorFactor" : [
                        0,
                        0,
                        0
                    ]
                },
                "KHR_materials_ior" : {
                    "ior" : 0
                }
            },
            "name" : "TQ_ARD_front.001",
            "pbrMetallicRoughness" : {
                "baseColorTexture" : {
                    "index" : 0
                },
                "metallicFactor" : 0,
                "roughnessFactor" : 0.5
            }
        },
        {
            "doubleSided" : true,
            "extensions" : {
                "KHR_materials_specular" : {
                    "specularColorFactor" : [
                        0,
                        0,
                        0
                    ]
                },
                "KHR_materials_ior" : {
                    "ior" : 0
                }
            },
            "name" : "TQ_ARD_back.001",
            "pbrMetallicRoughness" : {
                "baseColorFactor" : [
                    0.7764706015586853,
                    0.7490196228027344,
                    0.7019608020782471,
                    1
                ],
                "metallicFactor" : 0,
                "roughnessFactor" : 0.5
            }
        },
        {
            "doubleSided" : true,
            "extensions" : {
                "KHR_materials_specular" : {
                    "specularColorFactor" : [
                        0,
                        0,
                        0
                    ]
                },
                "KHR_materials_ior" : {
                    "ior" : 0
                }
            },
            "name" : "TQ_ARD_edge.001",
            "pbrMetallicRoughness" : {
                "baseColorFactor" : [
                    0.7764706015586853,
                    0.7490196228027344,
                    0.7019608020782471,
                    1
                ],
                "metallicFactor" : 0,
                "roughnessFactor" : 0.5
            }
        },
        {
            "doubleSided" : true,
            "extensions" : {
                "KHR_materials_specular" : {
                    "specularColorFactor" : [
                        0,
                        0,
                        0
                    ]
                },
                "KHR_materials_ior" : {
                    "ior" : 0
                }
            },
            "name" : "TQ_ARD_front.002",
            "pbrMetallicRoughness" : {
                "baseColorTexture" : {
                    "index" : 1
                },
                "metallicFactor" : 0,
                "roughnessFactor" : 0.5
            }
        },
        {
            "doubleSided" : true,
            "extensions" : {
                "KHR_materials_specular" : {
                    "specularColorFactor" : [
                        0,
                        0,
                        0
                    ]
                },
                "KHR_materials_ior" : {
                    "ior" : 0
                }
            },
            "name" : "TQ_ARD_back.002",
            "pbrMetallicRoughness" : {
                "baseColorFactor" : [
                    0.7764706015586853,
                    0.7490196228027344,
                    0.7019608020782471,
                    1
                ],
                "metallicFactor" : 0,
                "roughnessFactor" : 0.5
            }
        },
        {
            "doubleSided" : true,
            "extensions" : {
                "KHR_materials_specular" : {
                    "specularColorFactor" : [
                        0,
                        0,
                        0
                    ]
                },
                "KHR_materials_ior" : {
                    "ior" : 0
                }
            },
            "name" : "TQ_ARD_edge.002",
            "pbrMetallicRoughness" : {
                "baseColorFactor" : [
                    0.7764706015586853,
                    0.7490196228027344,
                    0.7019608020782471,
                    1
                ],
                "metallicFactor" : 0,
                "roughnessFactor" : 0.5
            }
        }
    ],
    "meshes" : [
        {
            "name" : "TQ_ARD-geom.001",
            "primitives" : [
                {
                    "attributes" : {
                        "POSITION" : 0,
                        "NORMAL" : 1,
                        "TEXCOORD_0" : 2
                    },
                    "indices" : 3,
                    "material" : 0
                },
                {
                    "attributes" : {
                        "POSITION" : 4,
                        "NORMAL" : 5,
                        "TEXCOORD_0" : 6
                    },
                    "indices" : 7,
                    "material" : 1
                },
                {
                    "attributes" : {
                        "POSITION" : 8,
                        "NORMAL" : 9,
                        "TEXCOORD_0" : 10
                    },
                    "indices" : 11,
                    "material" : 2
                }
            ]
        },
        {
            "name" : "TQ_ARD-geom.002",
            "primitives" : [
                {
                    "attributes" : {
                        "POSITION" : 12,
                        "NORMAL" : 13,
                        "TEXCOORD_0" : 14
                    },
                    "indices" : 15,
                    "material" : 3
                },
                {
                    "attributes" : {
                        "POSITION" : 16,
                        "NORMAL" : 17,
                        "TEXCOORD_0" : 18
                    },
                    "indices" : 19,
                    "material" : 4
                },
                {
                    "attributes" : {
                        "POSITION" : 20,
                        "NORMAL" : 21,
                        "TEXCOORD_0" : 22
                    },
                    "indices" : 23,
                    "material" : 5
                }
            ]
        }
    ],
    "textures" : [
        {
            "sampler" : 0,
            "source" : 0
        },
        {
            "sampler" : 0,
            "source" : 0
        }
    ],
    "images" : [
        {
            "bufferView" : 4,
            "mimeType" : "image/jpeg",
            "name" : "1"
        }
    ],
    "accessors" : [
        {
            "bufferView" : 0,
            "componentType" : 5126,
            "count" : 577,
            "max" : [
                0.10997669398784637,
                0.19121086597442627,
                0.1825486421585083
            ],
            "min" : [
                0.046485304832458496,
                -7.450580596923828e-09,
                0.07056467980146408
            ],
            "type" : "VEC3"
        },
        {
            "bufferView" : 1,
            "componentType" : 5126,
            "count" : 577,
            "type" : "VEC3"
        },
        {
            "bufferView" : 2,
            "componentType" : 5126,
            "count" : 577,
            "type" : "VEC2"
        },
        {
            "bufferView" : 3,
            "componentType" : 5123,
            "count" : 1275,
            "type" : "SCALAR"
        },
        {
            "bufferView" : 5,
            "componentType" : 5126,
            "count" : 625,
            "max" : [
                0.10967189073562622,
                0.1909582018852234,
                0.1822989583015442
            ],
            "min" : [
                0.04673190414905548,
                0.00030478835105895996,
                0.0708143562078476
            ],
            "type" : "VEC3"
        },
        {
            "bufferView" : 6,
            "componentType" : 5126,
            "count" : 625,
            "type" : "VEC3"
        },
        {
            "bufferView" : 7,
            "componentType" : 5126,
            "count" : 625,
            "type" : "VEC2"
        },
        {
            "bufferView" : 8,
            "componentType" : 5123,
            "count" : 1275,
            "type" : "SCALAR"
        },
        {
            "bufferView" : 9,
            "componentType" : 5126,
            "count" : 1040,
            "max" : [
                0.10997664928436279,
                0.19121086597442627,
                0.1825486421585083
            ],
            "min" : [
                0.046485304832458496,
                -7.450580596923828e-09,
                0.07056467980146408
            ],
            "type" : "VEC3"
        },
        {
            "bufferView" : 10,
            "componentType" : 5126,
            "count" : 1040,
            "type" : "VEC3"
        },
        {
            "bufferView" : 11,
            "componentType" : 5126,
            "count" : 1040,
            "type" : "VEC2"
        },
        {
            "bufferView" : 12,
            "componentType" : 5123,
            "count" : 1626,
            "type" : "SCALAR"
        },
        {
            "bufferView" : 13,
            "componentType" : 5126,
            "count" : 577,
            "max" : [
                0.16525068879127502,
                0.15192821621894836,
                0.06908906251192093
            ],
            "min" : [
                0.12494581192731857,
                -5.960464477539063e-08,
                -0.014215759932994843
            ],
            "type" : "VEC3"
        },
        {
            "bufferView" : 14,
            "componentType" : 5126,
            "count" : 577,
            "type" : "VEC3"
        },
        {
            "bufferView" : 15,
            "componentType" : 5126,
            "count" : 577,
            "type" : "VEC2"
        },
        {
            "bufferView" : 16,
            "componentType" : 5123,
            "count" : 1275,
            "type" : "SCALAR"
        },
        {
            "bufferView" : 17,
            "componentType" : 5126,
            "count" : 591,
            "max" : [
                0.16494590044021606,
                0.15162348747253418,
                0.06893665343523026
            ],
            "min" : [
                0.12525062263011932,
                0.0003047436475753784,
                -0.014063335955142975
            ],
            "type" : "VEC3"
        },
        {
            "bufferView" : 18,
            "componentType" : 5126,
            "count" : 591,
            "type" : "VEC3"
        },
        {
            "bufferView" : 19,
            "componentType" : 5126,
            "count" : 591,
            "type" : "VEC2"
        },
        {
            "bufferView" : 20,
            "componentType" : 5123,
            "count" : 1275,
            "type" : "SCALAR"
        },
        {
            "bufferView" : 21,
            "componentType" : 5126,
            "count" : 1034,
            "max" : [
                0.16525065898895264,
                0.15192821621894836,
                0.06893665343523026
            ],
            "min" : [
                0.12494584918022156,
                -5.960464477539063e-08,
                -0.014215730130672455
            ],
            "type" : "VEC3"
        },
        {
            "bufferView" : 22,
            "componentType" : 5126,
            "count" : 1034,
            "type" : "VEC3"
        },
        {
            "bufferView" : 23,
            "componentType" : 5126,
            "count" : 1034,
            "type" : "VEC2"
        },
        {
            "bufferView" : 24,
            "componentType" : 5123,
            "count" : 1626,
            "type" : "SCALAR"
        }
    ],
    "bufferViews" : [
        {
            "buffer" : 0,
            "byteLength" : 6924,
            "byteOffset" : 0,
            "target" : 34962
        },
        {
            "buffer" : 0,
            "byteLength" : 6924,
            "byteOffset" : 6924,
            "target" : 34962
        },
        {
            "buffer" : 0,
            "byteLength" : 4616,
            "byteOffset" : 13848,
            "target" : 34962
        },
        {
            "buffer" : 0,
            "byteLength" : 2550,
            "byteOffset" : 18464,
            "target" : 34963
        },
        {
            "buffer" : 0,
            "byteLength" : 130466,
            "byteOffset" : 21016
        },
        {
            "buffer" : 0,
            "byteLength" : 7500,
            "byteOffset" : 151484,
            "target" : 34962
        },
        {
            "buffer" : 0,
            "byteLength" : 7500,
            "byteOffset" : 158984,
            "target" : 34962
        },
        {
            "buffer" : 0,
            "byteLength" : 5000,
            "byteOffset" : 166484,
            "target" : 34962
        },
        {
            "buffer" : 0,
            "byteLength" : 2550,
            "byteOffset" : 171484,
            "target" : 34963
        },
        {
            "buffer" : 0,
            "byteLength" : 12480,
            "byteOffset" : 174036,
            "target" : 34962
        },
        {
            "buffer" : 0,
            "byteLength" : 12480,
            "byteOffset" : 186516,
            "target" : 34962
        },
        {
            "buffer" : 0,
            "byteLength" : 8320,
            "byteOffset" : 198996,
            "target" : 34962
        },
        {
            "buffer" : 0,
            "byteLength" : 3252,
            "byteOffset" : 207316,
            "target" : 34963
        },
        {
            "buffer" : 0,
            "byteLength" : 6924,
            "byteOffset" : 210568,
            "target" : 34962
        },
        {
            "buffer" : 0,
            "byteLength" : 6924,
            "byteOffset" : 217492,
            "target" : 34962
        },
        {
            "buffer" : 0,
            "byteLength" : 4616,
            "byteOffset" : 224416,
            "target" : 34962
        },
        {
            "buffer" : 0,
            "byteLength" : 2550,
            "byteOffset" : 229032,
            "target" : 34963
        },
        {
            "buffer" : 0,
            "byteLength" : 7092,
            "byteOffset" : 231584,
            "target" : 34962
        },
        {
            "buffer" : 0,
            "byteLength" : 7092,
            "byteOffset" : 238676,
            "target" : 34962
        },
        {
            "buffer" : 0,
            "byteLength" : 4728,
            "byteOffset" : 245768,
            "target" : 34962
        },
        {
            "buffer" : 0,
            "byteLength" : 2550,
            "byteOffset" : 250496,
            "target" : 34963
        },
        {
            "buffer" : 0,
            "byteLength" : 12408,
            "byteOffset" : 253048,
            "target" : 34962
        },
        {
            "buffer" : 0,
            "byteLength" : 12408,
            "byteOffset" : 265456,
            "target" : 34962
        },
        {
            "buffer" : 0,
            "byteLength" : 8272,
            "byteOffset" : 277864,
            "target" : 34962
        },
        {
            "buffer" : 0,
            "byteLength" : 3252,
            "byteOffset" : 286136,
            "target" : 34963
        }
    ],
    "samplers" : [
        {
            "magFilter" : 9729,
            "minFilter" : 9987
        }
    ],
    "buffers" : [
        {
            "byteLength" : 289388,
            "uri" : "data:application/octet-stream;base64,"
        }
    ]
}
